<?xml version="1.0" encoding="utf-8"?>
<!DOCTYPE svg PUBLIC "-//W3C//DTD SVG 1.1//EN" "http://www.w3.org/Graphics/SVG/1.1/DTD/svg11.dtd">
<svg version="1.1" id="Слой_1" xmlns="http://www.w3.org/2000/svg" xmlns:xlink="http://www.w3.org/1999/xlink" x="0px" y="0px"
	 width="280px" height="128px" viewBox="0 0 68.449 30.479" enable-background="new 0 0 68.449 30.479" xml:space="preserve">
<path fill="#262424" d="M35.844,12.667h2.162c0.15,0,0.221,0.071,0.221,0.221v3.611c0,0.154-0.073,0.221-0.221,0.221H37.79
	c-0.157,0-0.221-0.076-0.221-0.221v-3.22h-1.286v3.22v0c0,0.154-0.074,0.221-0.221,0.221h-0.217l0,0
	c-0.161,0-0.221-0.081-0.221-0.221v-3.611C35.624,12.74,35.691,12.667,35.844,12.667L35.844,12.667z M28.74,16.5
	c0,0.152,0.071,0.221,0.221,0.221h0.217c0.146,0,0.221-0.066,0.221-0.221v-1.564h1.287V16.5c0,0.146,0.066,0.221,0.221,0.221h0.217
	c0.151,0,0.221-0.073,0.221-0.221v-3.611c0-0.155-0.074-0.221-0.221-0.221h-0.217c-0.15,0-0.221,0.07-0.221,0.221
	c0,0.001,0,0.002,0,0.004v1.437h-1.287v-1.437c0-0.001,0-0.002,0-0.004c0-0.15-0.07-0.221-0.221-0.221h-0.217
	c-0.152,0-0.221,0.071-0.221,0.221V16.5z M42.74,12.667h0.432h0.005h0.835c0.741,0,1.045,0.467,1.045,0.997v0.482
	c0,0.543-0.313,0.982-1.007,0.982h-0.872V16.5c0,0.151-0.071,0.221-0.221,0.221H42.74c-0.162,0-0.221-0.083-0.221-0.221v-3.611
	C42.52,12.744,42.583,12.667,42.74,12.667z M43.177,13.279l0,1.246h0.842c0.273,0,0.379-0.144,0.379-0.379v-0.482
	c0-0.195-0.053-0.384-0.417-0.384H43.177z M41.837,16.507c0.041,0.139-0.035,0.213-0.161,0.213H41.41
	c-0.115,0-0.18-0.052-0.211-0.158h0l-0.177-0.627h-1.364l-0.177,0.627h0c-0.032,0.106-0.097,0.158-0.212,0.158h-0.267
	c-0.126,0-0.202-0.075-0.161-0.213c0.021-0.07,1.095-3.683,1.095-3.683l0,0c0.031-0.103,0.08-0.156,0.211-0.156h0.384
	c0.131,0,0.18,0.053,0.211,0.156v0C40.742,12.824,41.816,16.437,41.837,16.507z M40.86,15.361l-0.474-1.687h-0.094l-0.475,1.687
	H40.86z M68.436,16.557c-0.028,0.096-0.098,0.174-0.191,0.212L35.21,30.455c-0.041,0.017-0.084,0.025-0.127,0.025
	c-0.042,0-0.085-0.008-0.125-0.025L1.919,16.769c-0.058-0.023-0.107-0.063-0.144-0.115l-1.716-2.451
	c0-0.001-0.001-0.002-0.001-0.003c-0.019-0.028-0.034-0.059-0.043-0.091c-0.003-0.01-0.003-0.02-0.005-0.029
	C0.005,14.058,0,14.037,0,14.014c0-0.002,0-0.004,0-0.006c0-0.013,0.004-0.025,0.005-0.038c0.003-0.021,0.005-0.042,0.013-0.062
	c0.003-0.012,0.01-0.023,0.017-0.034c0.009-0.019,0.018-0.038,0.03-0.055c0.002-0.004,0.003-0.009,0.007-0.013
	c0.006-0.007,0.015-0.012,0.021-0.019c0.014-0.014,0.028-0.028,0.045-0.04c0.011-0.008,0.023-0.015,0.036-0.021
	c0.009-0.005,0.018-0.013,0.028-0.017L33.24,0.025c0.081-0.034,0.171-0.034,0.252,0l33.037,13.684
	c0.014,0.005,0.026,0.015,0.038,0.022c0.012,0.007,0.023,0.013,0.034,0.021c0.022,0.016,0.04,0.036,0.056,0.056
	c0.005,0.006,0.012,0.01,0.016,0.016l1.716,2.451C68.447,16.357,68.463,16.461,68.436,16.557z M1.191,14.014l32.176,13.328
	l32.174-13.328L33.366,0.688L1.191,14.014z M4.219,17.008l-1.011-1.444l-1.959-0.812l1.012,1.445L4.219,17.008z M6.972,18.148
	l-1.011-1.445l-2.3-0.952l1.013,1.444L6.972,18.148z M9.726,19.29l-1.012-1.445l-2.298-0.952l1.011,1.444L9.726,19.29z
	 M12.479,20.429l-1.012-1.444l-2.299-0.953l1.012,1.445L12.479,20.429z M15.232,21.569l-1.011-1.444l-2.299-0.952l1.012,1.445
	L15.232,21.569z M17.985,22.71l-1.012-1.444l-2.299-0.953l1.012,1.445L17.985,22.71z M20.738,23.851l-1.012-1.445l-2.299-0.952
	l1.012,1.444L20.738,23.851z M23.492,24.991l-1.012-1.445l-2.298-0.952l1.011,1.445L23.492,24.991z M26.245,26.131l-1.012-1.444
	l-2.299-0.953l1.011,1.444L26.245,26.131z M28.998,27.271l-1.011-1.444l-2.298-0.952l1.011,1.444L28.998,27.271z M31.751,28.412
	l-1.012-1.444l-2.298-0.953l1.011,1.445L31.751,28.412z M34.164,29.412l-0.837-1.195l-0.174-0.25l-1.959-0.811l1.012,1.444
	L34.164,29.412z M36.829,29.069L35.5,27.172l-1.627,0.674l1.329,1.897L36.829,29.069z M38.894,28.214l-1.329-1.897l-1.814,0.751
	l1.329,1.897L38.894,28.214z M40.959,27.359l-1.329-1.897l-1.815,0.751l1.329,1.897L40.959,27.359z M43.024,26.503l-1.329-1.897
	l-1.815,0.751l1.329,1.897L43.024,26.503z M45.088,25.648l-1.328-1.897l-1.814,0.751l1.329,1.897L45.088,25.648z M47.153,24.793
	l-1.328-1.897l-1.815,0.752l1.328,1.897L47.153,24.793z M49.218,23.938L47.89,22.04l-1.815,0.752l1.329,1.897L49.218,23.938z
	 M51.282,23.083l-1.329-1.897l-1.814,0.751l1.328,1.897L51.282,23.083z M53.347,22.227l-1.329-1.897l-1.815,0.752l1.329,1.897
	L53.347,22.227z M55.412,21.372l-1.329-1.898l-1.815,0.752l1.329,1.897L55.412,21.372z M57.477,20.516l-1.329-1.897l-1.815,0.751
	l1.329,1.897L57.477,20.516z M59.542,19.661l-1.329-1.897l-1.814,0.751l1.329,1.897L59.542,19.661z M61.606,18.806l-1.328-1.897
	l-1.815,0.751l1.329,1.897L61.606,18.806z M63.671,17.951l-1.329-1.897l-1.815,0.751l1.328,1.898L63.671,17.951z M65.735,17.095
	l-1.328-1.897l-1.814,0.752l1.329,1.897L65.735,17.095z M67.613,16.317l-1.329-1.897l-1.627,0.674l1.328,1.898L67.613,16.317z
	 M34.797,15.717c0,0.624-0.358,1.003-1.009,1.003h-0.607c-0.65,0-1.009-0.379-1.009-1.003V13.67c0-0.624,0.359-1.003,1.009-1.003
	h0.607c0.65,0,1.009,0.379,1.009,1.003V15.717z M34.14,13.695c0-0.275-0.182-0.416-0.455-0.416h-0.4
	c-0.273,0-0.455,0.141-0.455,0.416v1.997c0,0.275,0.182,0.416,0.455,0.416h0.4c0.273,0,0.455-0.141,0.455-0.416V13.695z
	 M33.367,26.211c-0.017,0-0.034-0.003-0.05-0.009L4.188,14.136c-0.049-0.021-0.082-0.068-0.082-0.122s0.032-0.102,0.082-0.123
	L33.315,1.827c0.033-0.014,0.069-0.014,0.101,0l29.129,12.064c0.049,0.021,0.082,0.069,0.082,0.123s-0.032,0.101-0.082,0.122
	L33.417,26.202C33.401,26.208,33.385,26.211,33.367,26.211z M33.367,25.937L62.15,14.014L33.366,2.092L4.584,14.014L33.367,25.937z
	 M28.101,16.473c-0.003-0.006-1.049-1.862-1.049-1.862s0.948-1.683,0.954-1.691c0.073-0.13-0.004-0.252-0.146-0.252h-0.311
	c-0.085,0-0.159,0.049-0.196,0.119l-0.667,1.238l-0.667-1.237l0,0c-0.037-0.071-0.11-0.12-0.196-0.12H25.51
	c-0.145,0-0.219,0.124-0.147,0.25c0.011,0.02,0.955,1.693,0.955,1.693L25.27,16.47c-0.06,0.108-0.024,0.25,0.147,0.25
	c0.001,0,0.309,0,0.309,0c0.086,0,0.161-0.051,0.197-0.123l0.761-1.432l0.763,1.437c0.037,0.07,0.111,0.118,0.195,0.118
	c0,0,0.308,0,0.309,0C28.13,16.72,28.156,16.57,28.101,16.473z M45.938,16.72h0.217c0.152,0,0.221-0.072,0.221-0.221v-1.552h0.447
	l1.071,1.675c0.045,0.068,0.092,0.099,0.185,0.099c0,0,0.15,0,0.323,0c0.155,0,0.22-0.135,0.142-0.255
	c-0.051-0.077-1.189-1.817-1.189-1.817s0.965-1.626,1.027-1.731c0.07-0.119,0.009-0.25-0.144-0.25h-0.299
	c-0.103,0-0.152,0.036-0.195,0.118l-0.929,1.598h-0.438v-1.496c0-0.149-0.069-0.221-0.221-0.221h-0.217
	c-0.158,0-0.221,0.078-0.221,0.221v3.611C45.718,16.646,45.785,16.72,45.938,16.72z M24.45,12.667H22.64
	c-0.155,0-0.221,0.075-0.221,0.221V16.5c0,0.149,0.068,0.221,0.221,0.221h1.811c0.146,0,0.221-0.066,0.221-0.221v-0.171
	c0-0.149-0.069-0.22-0.221-0.22h-1.374v-1.173l1.15,0c0.157,0,0.221-0.077,0.221-0.221V14.55c0-0.15-0.07-0.221-0.221-0.221l-1.15,0
	v-1.049h1.374c0.146,0,0.221-0.066,0.221-0.221v-0.17C24.671,12.736,24.599,12.667,24.45,12.667z M21.561,12.667h-1.147h-1.148
	c-0.156,0-0.221,0.075-0.221,0.221v0.17c0,0.15,0.07,0.221,0.221,0.221h0.819v3.22c0,0.155,0.074,0.221,0.221,0.221h0.215
	c0.152,0,0.221-0.071,0.221-0.221v-3.22h0.819c0.153,0,0.221-0.073,0.221-0.221v-0.17C21.782,12.738,21.712,12.667,21.561,12.667z
	 M30.033,7.148c0.059,0,0.103-0.013,0.132-0.038s0.043-0.067,0.043-0.124v-1.13h0.012l0.227,0.459
	c0.013,0.025,0.033,0.053,0.059,0.083c0.025,0.029,0.064,0.044,0.117,0.044h0.097c0.055,0,0.095-0.014,0.119-0.043
	c0.024-0.028,0.043-0.055,0.057-0.081l0.229-0.462h0.012v1.13c0,0.057,0.014,0.099,0.043,0.124s0.073,0.038,0.132,0.038
	c0.061,0,0.106-0.013,0.135-0.038c0.029-0.025,0.043-0.067,0.043-0.124V5.337c0-0.114-0.059-0.17-0.177-0.17h-0.1
	c-0.077,0-0.131,0.03-0.162,0.091l-0.369,0.733h-0.018l-0.345-0.683c-0.01-0.02-0.02-0.038-0.029-0.056
	c-0.01-0.018-0.021-0.033-0.036-0.045c-0.014-0.013-0.03-0.022-0.048-0.029c-0.019-0.007-0.043-0.01-0.072-0.01h-0.101
	c-0.118,0-0.177,0.057-0.177,0.17v1.649c0,0.057,0.014,0.099,0.043,0.124S29.972,7.148,30.033,7.148z M32.254,7.148
	c0.057,0,0.101-0.012,0.13-0.035s0.044-0.064,0.044-0.121V5.508h0.801c0.053,0,0.093-0.015,0.119-0.045
	c0.026-0.031,0.04-0.072,0.04-0.125c0-0.053-0.013-0.094-0.04-0.125c-0.026-0.03-0.066-0.045-0.119-0.045h-0.975
	c-0.12,0-0.179,0.057-0.179,0.17v1.655c0,0.057,0.015,0.098,0.044,0.121S32.194,7.148,32.254,7.148z M33.868,5.508h0.415v1.476
	c0,0.109,0.059,0.165,0.175,0.165c0.119,0,0.178-0.055,0.178-0.165V5.508h0.412c0.053,0,0.093-0.015,0.121-0.045
	c0.027-0.031,0.041-0.072,0.041-0.125c0-0.053-0.014-0.094-0.041-0.125c-0.028-0.03-0.068-0.045-0.121-0.045h-1.181
	c-0.053,0-0.093,0.015-0.119,0.045c-0.026,0.031-0.04,0.072-0.04,0.125c0,0.053,0.014,0.095,0.04,0.125
	C33.775,5.493,33.815,5.508,33.868,5.508z M36.194,6.565h0.415v0.029c0,0.069-0.018,0.118-0.054,0.147
	c-0.037,0.029-0.086,0.044-0.149,0.044h-0.568c-0.014,0-0.03,0.002-0.049,0.007c-0.019,0.005-0.036,0.014-0.052,0.025
	c-0.016,0.012-0.029,0.028-0.041,0.05c-0.012,0.022-0.018,0.05-0.018,0.085c0,0.065,0.017,0.111,0.05,0.138
	c0.033,0.028,0.07,0.042,0.109,0.042H36.4c0.179,0,0.317-0.045,0.416-0.136c0.098-0.09,0.147-0.224,0.147-0.4V5.34
	c0-0.068-0.017-0.116-0.049-0.141c-0.033-0.025-0.075-0.038-0.126-0.038c-0.018,0-0.037,0.001-0.058,0.002
	c-0.021,0.002-0.04,0.009-0.058,0.021c-0.018,0.012-0.033,0.03-0.044,0.054c-0.012,0.025-0.018,0.06-0.018,0.105v0.868h-0.422
	c-0.043,0-0.078-0.008-0.105-0.023s-0.049-0.036-0.066-0.062C36,6.101,35.988,6.073,35.981,6.042
	c-0.007-0.032-0.01-0.064-0.01-0.097V5.34c0-0.074-0.017-0.123-0.049-0.146c-0.033-0.022-0.075-0.034-0.126-0.034
	c-0.02,0-0.04,0.001-0.061,0.002c-0.021,0.002-0.04,0.009-0.058,0.021c-0.018,0.012-0.032,0.03-0.043,0.054
	c-0.011,0.025-0.017,0.06-0.017,0.105v0.604c0,0.196,0.049,0.348,0.146,0.457C35.86,6.511,36.004,6.565,36.194,6.565z
	 M22.665,10.014c0.026,0.019,0.07,0.028,0.131,0.028c0.026,0,0.048,0,0.066-0.001c0.019-0.001,0.036-0.005,0.051-0.011
	c0.016-0.006,0.031-0.015,0.044-0.028s0.028-0.03,0.044-0.051l0.483-0.695v0.61c0,0.063,0.013,0.108,0.038,0.135
	c0.026,0.028,0.073,0.041,0.14,0.041c0.069,0,0.116-0.016,0.14-0.048c0.024-0.032,0.036-0.075,0.036-0.128V8.779
	c0-0.057-0.013-0.094-0.04-0.111s-0.065-0.025-0.114-0.025c-0.045,0-0.083,0.006-0.113,0.018c-0.03,0.012-0.058,0.038-0.083,0.077
	l-0.509,0.757V8.832c0-0.069-0.012-0.118-0.037-0.147c-0.024-0.03-0.071-0.044-0.14-0.044c-0.064,0-0.11,0.016-0.137,0.047
	c-0.026,0.032-0.04,0.08-0.04,0.145v1.075C22.625,9.959,22.638,9.995,22.665,10.014z M25.455,10.003
	c0.029-0.025,0.044-0.068,0.044-0.129V8.823c0-0.114-0.059-0.171-0.177-0.171h-0.08c-0.068,0-0.121,0.029-0.156,0.088l-0.289,0.474
	l-0.292-0.48c-0.016-0.023-0.032-0.043-0.05-0.059c-0.018-0.016-0.052-0.023-0.103-0.023h-0.08c-0.115,0-0.173,0.057-0.173,0.171
	v1.051c0,0.061,0.014,0.104,0.043,0.129s0.073,0.038,0.132,0.038c0.062,0,0.107-0.013,0.135-0.038
	c0.029-0.025,0.043-0.068,0.043-0.129V9.259l0.138,0.247c0.013,0.023,0.032,0.048,0.057,0.074c0.024,0.025,0.062,0.038,0.113,0.038
	h0.073c0.051,0,0.088-0.012,0.113-0.035s0.044-0.048,0.06-0.074l0.138-0.244v0.609c0.002,0.112,0.061,0.167,0.176,0.167
	C25.381,10.042,25.425,10.029,25.455,10.003z M25.938,10.03c0.059,0,0.107-0.02,0.144-0.06s0.056-0.086,0.056-0.137
	c0-0.067-0.021-0.117-0.063-0.149s-0.089-0.049-0.14-0.049c-0.051,0-0.098,0.017-0.14,0.049s-0.063,0.082-0.063,0.149
	c0,0.053,0.019,0.099,0.059,0.138C25.829,10.01,25.878,10.03,25.938,10.03z M27.523,10.045c0.06,0,0.104-0.013,0.132-0.039
	c0.028-0.025,0.043-0.066,0.043-0.124V9.161h0.715v0.722c0,0.057,0.015,0.098,0.043,0.124c0.028,0.025,0.072,0.039,0.132,0.039
	c0.061,0,0.106-0.013,0.135-0.039c0.029-0.025,0.043-0.066,0.043-0.124V8.21c0-0.108-0.06-0.162-0.178-0.162
	c-0.117,0-0.175,0.054-0.175,0.161v0.61h-0.715v-0.61c0-0.107-0.059-0.161-0.175-0.161c-0.119,0-0.178,0.054-0.178,0.162v1.672
	c0,0.057,0.014,0.098,0.043,0.124S27.461,10.045,27.523,10.045z M29.232,10.03c0.059,0,0.107-0.02,0.144-0.06
	s0.056-0.086,0.056-0.137c0-0.067-0.021-0.117-0.063-0.149c-0.042-0.032-0.089-0.049-0.14-0.049c-0.051,0-0.098,0.017-0.14,0.049
	s-0.063,0.082-0.063,0.149c0,0.053,0.019,0.099,0.059,0.138C29.124,10.01,29.173,10.03,29.232,10.03z M31.012,9.619
	c-0.041,0.044-0.097,0.066-0.169,0.066l-0.604,0.003c-0.053,0-0.093,0.015-0.12,0.046c-0.026,0.03-0.04,0.072-0.04,0.125
	c0,0.053,0.013,0.095,0.04,0.125c0.027,0.03,0.066,0.045,0.12,0.045h0.618c0.077,0,0.149-0.012,0.218-0.037
	c0.069-0.024,0.13-0.061,0.182-0.11c0.053-0.049,0.094-0.111,0.124-0.187s0.044-0.166,0.044-0.27V8.679
	c0-0.205-0.042-0.358-0.125-0.461c-0.083-0.103-0.226-0.155-0.429-0.155h-0.606c-0.055,0-0.095,0.016-0.121,0.046
	s-0.039,0.072-0.039,0.125s0.013,0.095,0.039,0.125s0.065,0.046,0.121,0.046h0.577c0.086,0,0.146,0.023,0.18,0.07
	c0.033,0.047,0.05,0.11,0.05,0.188v0.15h-0.598c-0.114,0-0.171,0.058-0.171,0.173c0,0.069,0.015,0.116,0.043,0.14
	s0.071,0.037,0.128,0.037h0.598v0.268C31.073,9.513,31.052,9.575,31.012,9.619z M32.013,9.684c-0.042-0.032-0.089-0.049-0.14-0.049
	c-0.051,0-0.098,0.017-0.14,0.049S31.67,9.766,31.67,9.833c0,0.053,0.02,0.099,0.059,0.138c0.04,0.039,0.088,0.059,0.147,0.059
	c0.059,0,0.107-0.02,0.144-0.06s0.056-0.086,0.056-0.137C32.077,9.766,32.055,9.716,32.013,9.684z M33.478,8.063h0.921
	c0.053,0,0.093,0.016,0.12,0.046s0.04,0.072,0.04,0.125s-0.013,0.095-0.04,0.125s-0.066,0.046-0.12,0.046h-0.748v0.418h0.503
	c0.212,0,0.366,0.054,0.462,0.162c0.096,0.108,0.144,0.256,0.144,0.443c0,0.093-0.014,0.176-0.042,0.251
	c-0.029,0.075-0.07,0.138-0.124,0.19s-0.119,0.092-0.195,0.12s-0.161,0.041-0.255,0.041h-0.669c-0.118,0-0.177-0.057-0.177-0.17
	V8.231C33.298,8.119,33.358,8.063,33.478,8.063z M33.652,9.688h0.513c0.027,0,0.056-0.004,0.085-0.012s0.056-0.022,0.079-0.042
	c0.024-0.021,0.043-0.047,0.058-0.08c0.014-0.032,0.022-0.074,0.022-0.125c0-0.073-0.019-0.135-0.054-0.187
	c-0.037-0.052-0.098-0.078-0.184-0.078h-0.519V9.688z M35.25,8.829c0-0.057,0.016-0.1,0.047-0.128
	c0.031-0.028,0.063-0.043,0.097-0.043h0.421c0.177,0,0.31,0.045,0.399,0.134s0.134,0.219,0.134,0.39v0.668
	c0,0.014-0.003,0.031-0.009,0.051c-0.006,0.021-0.015,0.041-0.029,0.059c-0.014,0.019-0.031,0.035-0.053,0.048
	c-0.021,0.014-0.048,0.021-0.08,0.021h-0.757c-0.053,0-0.104-0.01-0.152-0.031c-0.048-0.021-0.09-0.05-0.126-0.088
	c-0.036-0.038-0.064-0.083-0.085-0.137c-0.021-0.053-0.031-0.113-0.031-0.18V9.568c0-0.053,0.009-0.104,0.028-0.152
	c0.019-0.048,0.046-0.09,0.081-0.126c0.036-0.037,0.079-0.066,0.13-0.088c0.051-0.022,0.109-0.034,0.176-0.034h0.551V9.144
	c0-0.039-0.014-0.076-0.043-0.11c-0.028-0.034-0.079-0.051-0.151-0.051h-0.403c-0.034,0-0.066-0.011-0.097-0.034
	C35.266,8.925,35.25,8.886,35.25,8.829z M35.996,9.471H35.48c-0.032,0-0.056,0.011-0.074,0.032c-0.018,0.021-0.026,0.045-0.026,0.07
	v0.009c0,0.027,0.008,0.052,0.025,0.074c0.017,0.022,0.042,0.034,0.075,0.034h0.515V9.471z M36.95,8.781
	c0-0.033-0.016-0.064-0.047-0.094c-0.031-0.029-0.075-0.044-0.131-0.044c-0.061,0-0.104,0.015-0.133,0.044
	c-0.028,0.03-0.042,0.061-0.042,0.094v0.704c0,0.183,0.051,0.319,0.152,0.409s0.241,0.135,0.419,0.135h0.365v0.039
	c0,0.068-0.019,0.123-0.056,0.164c-0.037,0.04-0.095,0.06-0.174,0.06H36.87c-0.033,0-0.065,0.013-0.096,0.039
	c-0.031,0.025-0.046,0.066-0.046,0.124c0,0.055,0.015,0.097,0.046,0.126c0.03,0.029,0.063,0.044,0.096,0.044h0.436
	c0.078,0,0.152-0.011,0.223-0.031c0.07-0.021,0.132-0.053,0.184-0.097c0.053-0.044,0.095-0.1,0.126-0.168
	c0.031-0.067,0.047-0.149,0.047-0.246V8.781c0-0.033-0.016-0.064-0.047-0.094c-0.031-0.029-0.075-0.044-0.132-0.044
	c-0.058,0-0.102,0.015-0.131,0.044c-0.029,0.03-0.044,0.061-0.044,0.094v0.907h-0.346c-0.067,0-0.124-0.015-0.169-0.044
	c-0.045-0.029-0.068-0.082-0.068-0.159V8.781z M38.329,10.042c0.061,0,0.106-0.013,0.135-0.038c0.029-0.025,0.043-0.068,0.043-0.129
	V9.259l0.138,0.247c0.014,0.023,0.033,0.048,0.057,0.074s0.062,0.038,0.113,0.038h0.073c0.051,0,0.089-0.012,0.113-0.035
	c0.025-0.023,0.045-0.048,0.061-0.074l0.138-0.244v0.609c0.002,0.112,0.061,0.167,0.177,0.167c0.059,0,0.103-0.013,0.132-0.038
	s0.044-0.068,0.044-0.129V8.823c0-0.114-0.059-0.171-0.177-0.171h-0.08c-0.069,0-0.121,0.029-0.156,0.088l-0.289,0.474l-0.291-0.48
	c-0.016-0.023-0.033-0.043-0.05-0.059c-0.018-0.016-0.052-0.023-0.103-0.023h-0.08c-0.116,0-0.174,0.057-0.174,0.171v1.051
	c0,0.061,0.015,0.104,0.043,0.129C38.226,10.029,38.27,10.042,38.329,10.042z M39.822,9.774c-0.021-0.053-0.031-0.113-0.031-0.18
	V9.568c0-0.053,0.009-0.104,0.028-0.152c0.019-0.048,0.046-0.09,0.081-0.126c0.035-0.037,0.079-0.066,0.129-0.088
	c0.051-0.022,0.11-0.034,0.177-0.034h0.551V9.144c0-0.039-0.014-0.076-0.043-0.11c-0.028-0.034-0.079-0.051-0.151-0.051h-0.404
	c-0.033,0-0.065-0.011-0.097-0.034c-0.032-0.023-0.047-0.063-0.047-0.12s0.016-0.1,0.047-0.128c0.031-0.028,0.063-0.043,0.097-0.043
	h0.421c0.177,0,0.31,0.045,0.399,0.134s0.134,0.219,0.134,0.39v0.668c0,0.014-0.002,0.031-0.008,0.051
	c-0.006,0.021-0.016,0.041-0.03,0.059s-0.031,0.035-0.053,0.048c-0.022,0.014-0.048,0.021-0.08,0.021h-0.757
	c-0.053,0-0.104-0.01-0.152-0.031c-0.048-0.021-0.09-0.05-0.126-0.088C39.871,9.873,39.842,9.827,39.822,9.774z M40.145,9.581
	c0,0.027,0.008,0.052,0.025,0.074c0.017,0.022,0.042,0.034,0.075,0.034h0.515V9.471h-0.515c-0.032,0-0.056,0.011-0.074,0.032
	c-0.018,0.021-0.026,0.045-0.026,0.07V9.581z M41.553,10.042c0.059,0,0.102-0.013,0.131-0.038s0.044-0.068,0.044-0.129V9.471h0.539
	v0.403c0,0.061,0.015,0.104,0.043,0.129c0.028,0.025,0.072,0.038,0.129,0.038c0.063,0,0.109-0.013,0.138-0.038
	s0.043-0.068,0.043-0.129V8.805c0-0.108-0.061-0.162-0.181-0.162c-0.115,0-0.172,0.054-0.172,0.162v0.341h-0.539V8.805
	c0-0.108-0.059-0.162-0.175-0.162c-0.119,0-0.178,0.054-0.178,0.162v1.069c0,0.061,0.015,0.104,0.044,0.129
	S41.493,10.042,41.553,10.042z M42.887,9.774c-0.021-0.053-0.031-0.113-0.031-0.18V9.568c0-0.053,0.009-0.104,0.028-0.152
	c0.019-0.048,0.045-0.09,0.081-0.126C43,9.253,43.043,9.224,43.095,9.201c0.051-0.022,0.11-0.034,0.177-0.034h0.55V9.144
	c0-0.039-0.014-0.076-0.042-0.11c-0.028-0.034-0.079-0.051-0.152-0.051h-0.403c-0.033,0-0.066-0.011-0.097-0.034
	c-0.032-0.023-0.047-0.063-0.047-0.12s0.016-0.1,0.047-0.128c0.031-0.028,0.063-0.043,0.097-0.043h0.421
	c0.176,0,0.31,0.045,0.399,0.134s0.134,0.219,0.134,0.39v0.668c0,0.014-0.003,0.031-0.009,0.051s-0.016,0.041-0.029,0.059
	s-0.032,0.035-0.053,0.048c-0.021,0.014-0.048,0.021-0.08,0.021h-0.756c-0.053,0-0.104-0.01-0.152-0.031s-0.09-0.05-0.126-0.088
	C42.936,9.873,42.908,9.827,42.887,9.774z M43.209,9.581c0,0.027,0.008,0.052,0.025,0.074c0.017,0.022,0.042,0.034,0.075,0.034
	h0.516V9.471H43.31c-0.031,0-0.056,0.011-0.074,0.032c-0.018,0.021-0.026,0.045-0.026,0.07V9.581z M29.402,19.285h-0.1
	c-0.077,0-0.131,0.031-0.163,0.091l-0.369,0.733h-0.018l-0.345-0.683c-0.01-0.02-0.02-0.039-0.029-0.056s-0.022-0.033-0.036-0.045
	s-0.03-0.023-0.048-0.03c-0.019-0.007-0.043-0.01-0.073-0.01h-0.1c-0.118,0-0.177,0.057-0.177,0.171v1.649
	c0,0.057,0.014,0.098,0.043,0.124s0.074,0.039,0.135,0.039c0.059,0,0.104-0.013,0.132-0.039c0.029-0.025,0.043-0.066,0.043-0.124
	v-1.131h0.012l0.226,0.459c0.014,0.025,0.034,0.053,0.059,0.083c0.025,0.029,0.064,0.044,0.117,0.044h0.097
	c0.055,0,0.094-0.014,0.119-0.042s0.043-0.056,0.057-0.081l0.229-0.462h0.012v1.131c0,0.057,0.014,0.098,0.043,0.124
	s0.073,0.039,0.132,0.039c0.061,0,0.106-0.013,0.135-0.039s0.043-0.066,0.043-0.124v-1.649
	C29.58,19.342,29.521,19.285,29.402,19.285z M31.617,21.04c0.008,0.018,0.012,0.039,0.012,0.062c0,0.045-0.019,0.084-0.056,0.118
	s-0.085,0.05-0.144,0.05c-0.071,0-0.122-0.041-0.153-0.121l-0.124-0.335h-0.666l-0.118,0.338c-0.026,0.079-0.078,0.118-0.156,0.118
	c-0.063,0-0.111-0.017-0.144-0.05c-0.034-0.033-0.05-0.072-0.05-0.115c0-0.01,0.001-0.021,0.003-0.032s0.005-0.023,0.009-0.033
	l0.568-1.61c0.016-0.042,0.036-0.076,0.061-0.103c0.024-0.028,0.064-0.042,0.119-0.042h0.088c0.053,0,0.092,0.013,0.118,0.04
	c0.025,0.026,0.046,0.061,0.062,0.104L31.617,21.04z M31.04,20.487c-0.036-0.104-0.07-0.209-0.104-0.314
	c-0.035-0.105-0.07-0.21-0.108-0.316h-0.012l-0.212,0.63H31.04z M32.292,19.271c-0.119,0-0.178,0.054-0.178,0.162v1.672
	c0,0.057,0.014,0.098,0.043,0.124s0.074,0.039,0.135,0.039c0.06,0,0.104-0.013,0.132-0.039s0.043-0.066,0.043-0.124v-1.672
	C32.468,19.324,32.41,19.271,32.292,19.271z M34.37,21.207c0.027-0.03,0.041-0.072,0.041-0.125c0-0.053-0.014-0.094-0.041-0.125
	c-0.028-0.03-0.068-0.045-0.121-0.045h-0.798v-1.469c0-0.114-0.058-0.171-0.174-0.171c-0.12,0-0.179,0.057-0.179,0.171v1.64
	c0,0.114,0.06,0.171,0.179,0.171h0.972C34.302,21.252,34.342,21.237,34.37,21.207z M35.105,20.906
	c-0.042-0.032-0.089-0.049-0.14-0.049c-0.051,0-0.098,0.017-0.14,0.049c-0.042,0.032-0.063,0.082-0.063,0.149
	c0,0.053,0.02,0.099,0.059,0.138c0.04,0.039,0.088,0.059,0.147,0.059s0.107-0.02,0.144-0.06c0.038-0.041,0.056-0.086,0.056-0.137
	C35.168,20.988,35.147,20.938,35.105,20.906z M37.064,19.643c0.029,0.076,0.044,0.159,0.044,0.252c0,0.061-0.006,0.122-0.018,0.182
	c-0.012,0.061-0.031,0.118-0.059,0.171c-0.028,0.053-0.065,0.1-0.111,0.141c-0.046,0.042-0.104,0.074-0.174,0.098l0.292,0.518
	c0.01,0.014,0.016,0.028,0.02,0.042c0.002,0.015,0.004,0.03,0.004,0.046c0,0.041-0.016,0.081-0.047,0.118s-0.073,0.056-0.124,0.056
	c-0.034,0-0.065-0.008-0.094-0.025c-0.03-0.017-0.052-0.04-0.068-0.069l-0.36-0.654h-0.332v0.577c0,0.114-0.059,0.171-0.175,0.171
	c-0.119,0-0.178-0.057-0.178-0.171v-1.64c0-0.114,0.059-0.171,0.177-0.171h0.625c0.094,0,0.179,0.014,0.255,0.042
	c0.076,0.029,0.141,0.069,0.196,0.123C36.992,19.503,37.035,19.567,37.064,19.643z M36.755,19.894c0-0.049-0.007-0.09-0.023-0.125
	c-0.016-0.034-0.035-0.062-0.057-0.083s-0.047-0.036-0.073-0.045s-0.05-0.013-0.072-0.013h-0.493v0.55h0.507
	c0.066,0,0.118-0.027,0.155-0.082C36.737,20.041,36.755,19.974,36.755,19.894z M38.958,19.3c-0.018-0.012-0.037-0.02-0.058-0.025
	c-0.021-0.005-0.039-0.007-0.054-0.007c-0.018,0-0.037,0.002-0.058,0.007c-0.021,0.005-0.039,0.014-0.056,0.025
	c-0.017,0.012-0.031,0.028-0.043,0.05c-0.012,0.022-0.018,0.048-0.018,0.08v1.221c0,0.075-0.021,0.137-0.062,0.186
	c-0.041,0.049-0.099,0.074-0.173,0.074h-0.282c-0.072,0-0.128-0.022-0.168-0.066c-0.041-0.044-0.061-0.107-0.061-0.187v-1.225
	c0-0.031-0.006-0.058-0.018-0.08s-0.027-0.039-0.044-0.051c-0.018-0.013-0.037-0.022-0.057-0.027s-0.039-0.007-0.056-0.007
	c-0.018,0-0.037,0.002-0.058,0.007s-0.04,0.013-0.058,0.025c-0.018,0.012-0.032,0.029-0.044,0.05
	c-0.012,0.021-0.018,0.049-0.018,0.083v1.216c0,0.104,0.015,0.194,0.044,0.27s0.07,0.138,0.122,0.187
	c0.052,0.049,0.113,0.086,0.181,0.11c0.069,0.024,0.142,0.037,0.218,0.037h0.312c0.078,0,0.152-0.013,0.221-0.038
	s0.128-0.063,0.18-0.115c0.051-0.051,0.092-0.115,0.122-0.191c0.031-0.077,0.046-0.166,0.046-0.268v-1.207
	c0-0.034-0.006-0.061-0.018-0.083S38.975,19.312,38.958,19.3z"/>
</svg>
